<svg width="220" height="14" viewBox="0 0 220 14" fill="none" xmlns="http://www.w3.org/2000/svg">
<g clip-path="url(#clip0_17_467)">
<path d="M0.0890109 5.03333L0 4.95417V3.58666L0.0782217 3.5075L1.56983 3.54571H3.26913L4.8012 3.5075L4.87942 3.57301V4.96509L4.8012 5.0306L3.26913 4.99239H1.56983L0.0890109 5.0306V5.03333ZM1.98252 12.8453V13.5605H0.412687L0.477422 11.2158V10.5662L0.43966 9.26416L0.517882 9.17408L1.9987 9.2123H2.82138L4.41548 9.17408L4.50449 9.26416L4.46673 10.5662V11.2567L4.53147 13.4049H2.91039V12.8453H1.98521H1.98252ZM8.42637 3.79683C8.78781 2.91245 9.05754 2.06629 9.26253 1.25834L9.37852 1.22012L10.9349 1.67596L10.9618 1.8179C10.7164 2.48118 10.3954 3.1472 10.0609 3.79683H10.4736L11.9922 3.75862L12.0812 3.8487V5.24078L11.9922 5.33085L10.4736 5.29264H10.0097V6.37355H10.6274L11.7602 6.33533L11.8492 6.42541V7.75471L11.7602 7.84478L10.6274 7.80657H10.0097V8.92569H10.6274L11.7602 8.88748L11.8492 8.97755V10.3069L11.7602 10.3969L10.6274 10.3587H10.0097V11.5706H10.9349L12.208 11.5324L12.3105 11.6225V13.0146L12.208 13.1047L10.9349 13.0664H7.15324V13.7052H5.41618L5.46743 9.32967V6.94676C5.42967 6.98497 5.40269 7.03683 5.36493 7.07777C5.27592 7.1815 5.22467 7.23336 5.15994 7.23336C5.0952 7.23336 5.03047 7.19515 4.95494 7.11599L4.32377 6.50457V6.81574L4.24555 6.88125L2.90769 6.84303H2.03377L0.70939 6.88125L0.620379 6.80209V5.52738L0.698601 5.44822L2.03646 5.48644H2.91039L4.24825 5.44822L4.32647 5.51373V5.81398C5.35684 4.44647 6.07702 2.87151 6.51398 1.26926L6.60299 1.25561L8.08381 1.77696L8.11078 1.91889C7.8923 2.55761 7.64685 3.18268 7.36363 3.79411H8.43176L8.42637 3.79683ZM0.706693 3.09261L0.617682 3.01345V1.73874L0.695904 1.65958L2.03377 1.6978H2.90769L4.24555 1.65958L4.32377 1.72509V3.0271L4.24555 3.09261L2.90769 3.05439H2.03377L0.70939 3.09261H0.706693ZM0.706693 8.72916L0.617682 8.65V7.3753L0.695904 7.29614L2.03377 7.33435H2.90769L4.24555 7.29614L4.32377 7.36165V8.66365L4.24555 8.72916L2.90769 8.69095H2.03377L0.70939 8.72916H0.706693ZM2.90769 10.5389H1.98252V11.516H2.90769V10.5389ZM7.15324 6.37355H8.35084V5.29264H7.15324V6.37355ZM7.15324 8.92569H8.35084V7.80657H7.15324V8.92569ZM7.15324 11.5679H8.35084V10.356H7.15324V11.5679Z" fill="black"/>
<path d="M15.1047 12.5833C15.8006 10.3178 16.4425 8.33883 17.098 6.34625C16.5073 6.43632 15.8114 6.52913 15.1694 6.60555L15.0669 6.5264L14.7837 4.95144L14.8619 4.86136C15.8788 4.7822 16.8309 4.66483 17.7184 4.53654C18.0258 3.63852 18.3226 2.71319 18.657 1.71144L18.7865 1.64593L20.5235 2.07447L20.5613 2.21641C20.2916 2.95885 20.0461 3.64943 19.8276 4.28542C20.0839 4.27178 20.3293 4.25813 20.5748 4.25813C21.6429 4.25813 22.6463 4.92141 22.6328 6.82392C22.6194 8.54355 22.3874 10.2604 22.0421 11.2758C21.5782 12.7471 20.7285 13.0583 20.0488 13.0583C19.5741 13.0583 19.0319 12.9791 18.4655 12.8235C18.3765 12.7962 18.336 12.7716 18.3252 12.5888L18.1715 10.7408C18.5842 10.8964 19.1506 11.0275 19.4581 11.0275C19.8708 11.0275 20.0488 10.9483 20.243 10.3369C20.448 9.67359 20.707 8.07133 20.707 6.93856C20.707 6.15791 20.618 6.00232 20.0515 6.00232C19.8196 6.00232 19.5229 6.02962 19.2019 6.05418C18.3387 8.52717 17.6968 10.547 16.9901 13.0719L16.8498 13.1101L15.1505 12.6816L15.1128 12.5778L15.1047 12.5833ZM22.7731 4.75764L24.1379 3.88418H24.2674C25.3598 5.0961 26.1852 6.51548 26.7381 7.98399L26.6869 8.115L25.0793 9.05125L24.9633 9.02395C24.4616 7.52542 23.7279 5.9914 22.7515 4.8832L22.7785 4.75218L22.7731 4.75764ZM23.5176 2.36381L24.1865 1.8834L24.316 1.86976C24.7907 2.27373 25.2411 2.72957 25.6295 3.25092L25.6161 3.38194L24.9094 3.88964H24.7799C24.3807 3.35464 24.0219 2.9261 23.5068 2.48391L23.5202 2.36654L23.5176 2.36381ZM24.7286 1.54221L25.3841 1.0618L25.5136 1.04816C25.9883 1.45213 26.401 1.86976 26.7867 2.38837L26.7732 2.51939L26.1043 3.01344H25.9748C25.5756 2.47845 25.2276 2.10177 24.7152 1.65958L24.7286 1.54221Z" fill="black"/>
<path d="M35.3158 7.44081C35.3158 8.22146 34.6981 8.84653 33.9267 8.84653C33.1553 8.84653 32.5376 8.22146 32.5376 7.44081C32.5376 6.66015 33.1553 6.03508 33.9267 6.03508C34.6981 6.03508 35.3158 6.66015 35.3158 7.44081Z" fill="black"/>
<path d="M44.3868 13.6915H42.5715L42.6363 9.66813V7.93758C42.4421 8.43163 42.2371 8.86291 42.0051 9.20137C41.9538 9.28053 41.8891 9.31874 41.8379 9.31874C41.7731 9.31874 41.7219 9.26688 41.6976 9.17681L41.1177 7.35346C42.1211 5.63383 42.817 3.63033 43.2405 1.35114L43.3564 1.28563L44.9775 1.68961L45.0422 1.80698C44.8238 2.66679 44.6053 3.40923 44.3868 4.07252V13.6942V13.6915ZM46.9978 3.78318L45.08 3.8214L44.991 3.73132V2.22187L45.08 2.13179L46.9978 2.17001H51.2568L53.2906 2.13179L53.3796 2.22187V3.73132L53.2906 3.8214L52.2225 3.7941V8.70186L52.2737 11.5406C52.2737 13.0774 51.7208 13.5059 49.6492 13.5059C49.393 13.5059 49.366 13.4786 49.3148 13.3503L48.5946 11.6716C49.1988 11.6716 49.7922 11.6443 50.0107 11.6198C50.2804 11.5925 50.3586 11.516 50.3586 11.2021V3.78318H47.0005H46.9978ZM46.8575 9.45795V10.3178H45.223L45.2877 7.88299V6.26982L45.2499 4.91595L45.3282 4.82588L46.7173 4.86409H48.0551L49.4308 4.82588L49.5198 4.91595L49.482 6.26982V7.68919L49.5467 10.0858H47.8474V9.46068H46.8575V9.45795ZM47.8474 8.00036V6.29438H46.8575V8.00036H47.8474Z" fill="black"/>
<path d="M56.0821 8.49441C57.5224 7.30978 58.5393 6.30802 59.2865 5.17525C58.6688 5.22712 58.0268 5.24076 57.4199 5.24076L57.3417 5.16161L57.2904 3.55935L57.3795 3.48019C58.3451 3.48019 59.2972 3.4529 60.2494 3.39012C60.4814 2.85512 60.6729 2.28464 60.8536 1.64592L60.9561 1.58041L62.7174 1.83972L62.7956 1.9298C62.6419 2.38564 62.4881 2.77596 62.3452 3.15264C62.9871 3.04892 63.6318 2.93155 64.2738 2.77596L64.3897 2.84147L64.5192 4.37822L64.441 4.49559C63.5023 4.69212 62.4477 4.86135 61.3796 4.98964C61.1746 5.30081 60.8913 5.70479 60.6324 6.01869C61.0181 5.90132 61.3283 5.84946 61.8408 5.84946C62.6392 5.84946 63.2164 6.35716 63.4106 7.0996C64.2225 6.78843 65.1342 6.46088 66.1376 6.12241L66.2671 6.17428L67.0655 7.77653L67.0007 7.8939C65.7006 8.23237 64.5947 8.57084 63.6426 8.92295C63.6696 9.43065 63.6804 10.0694 63.6938 10.6944L63.6048 10.7736L61.9055 10.8391L61.803 10.7599V9.69269C61.0181 10.0694 60.5812 10.4351 60.5812 10.8773C60.5812 11.3195 61.0963 11.4369 62.24 11.4505C63.1787 11.4642 64.4653 11.3468 65.5981 11.1776L65.7276 11.2567L65.8436 12.9873L65.7654 13.091C64.5435 13.1947 63.4619 13.2602 61.9568 13.2602C59.3593 13.2602 58.6769 12.1548 58.6769 11.0329C58.6769 9.78276 59.718 8.91203 60.9156 8.22145C61.1476 8.09043 61.4038 7.96214 61.687 7.83112C61.6223 7.50631 61.4308 7.33707 61.0451 7.33707C60.5299 7.33707 60.0282 7.46809 59.5778 7.79291C59.0113 8.21053 58.1374 9.04305 57.339 9.90286L57.2095 9.91651L56.0767 8.6418V8.49987L56.0821 8.49441Z" fill="black"/>
<path d="M76.4872 7.44081C76.4872 8.22146 75.8695 8.84653 75.0981 8.84653C74.3267 8.84653 73.709 8.22146 73.709 7.44081C73.709 6.66015 74.3267 6.03508 75.0981 6.03508C75.8695 6.03508 76.4872 6.66015 76.4872 7.44081Z" fill="black"/>
<path d="M92.5959 12.4659C91.4118 12.556 90.1656 12.6079 88.5446 12.6079C85.4561 12.6079 83.978 11.658 83.978 9.61354C83.978 8.42891 84.9437 7.29613 86.3058 6.31895C85.6746 5.40727 84.9922 4.26086 84.4285 3.22089L84.4554 3.08987L86.0118 2.271L86.1413 2.30922C86.7077 3.35191 87.3497 4.44374 87.9673 5.34176C89.138 4.74399 90.4515 4.18443 91.7382 3.7013L91.8676 3.75316L92.6256 5.45914L92.5743 5.56286C91.4549 5.93954 90.3113 6.38446 89.5641 6.70928C89.3591 6.87851 89.2432 7.04774 89.2162 7.35891C89.1784 7.88026 88.6875 8.20508 88.291 8.20508C87.9431 8.20508 87.6598 8.07406 87.4036 7.85297C86.4002 8.43982 85.9498 8.98574 85.9498 9.59716C85.9498 10.4706 87.0422 10.6644 88.5607 10.6644C89.6936 10.6644 90.9532 10.5743 92.5231 10.4051L92.6256 10.4843L92.6768 12.3458L92.5986 12.4632L92.5959 12.4659ZM91.4496 2.36381L92.1185 1.8834L92.248 1.86976C92.7227 2.27373 93.1731 2.72957 93.5615 3.25092L93.5481 3.38194L92.8414 3.88964H92.7119C92.3127 3.35464 91.9539 2.9261 91.4388 2.48391L91.4522 2.36654L91.4496 2.36381ZM92.6606 1.54221L93.3161 1.0618L93.4456 1.04816C93.9203 1.45213 94.333 1.86976 94.7187 2.38837L94.7052 2.51939L94.0363 3.01344H93.9068C93.5076 2.47845 93.1596 2.10177 92.6472 1.65958L92.6606 1.54221Z" fill="black"/>
<path d="M101.613 5.57924C102.9 4.30453 103.814 3.79683 104.855 3.79683C105.896 3.79683 106.824 4.25267 106.824 5.89314C106.824 6.77752 106.735 7.53361 106.67 8.1969C106.619 8.78375 106.568 9.53711 106.568 9.85101C106.568 10.2031 106.606 10.3205 106.865 10.3205C107.097 10.3205 107.803 9.98203 108.472 9.09765L109.001 10.8418C109.079 11.0766 109.028 11.1667 108.861 11.3223C108.089 12.051 107.291 12.3895 106.417 12.3895C105.427 12.3895 104.629 11.9091 104.629 10.3451C104.629 9.74729 104.693 8.97755 104.758 8.22419C104.809 7.63734 104.874 6.94948 104.874 6.38719C104.874 5.76212 104.785 5.60654 104.424 5.60654C104.024 5.60654 103.56 5.89314 103.11 6.25617C102.659 6.63285 102.12 7.16785 101.554 7.71376C101.527 9.08128 101.554 10.5252 101.632 12.3868C101.632 12.96 101.246 13.4158 100.601 13.4158C100.086 13.4158 99.8165 13.0391 99.6628 12.5942C99.5333 12.2421 99.2123 11.6307 98.6594 10.992C98.4652 11.2649 98.2737 11.5652 98.0417 11.9036H97.9015L96.8711 10.5116V10.3696C97.888 8.98847 98.7889 7.89664 99.7788 6.66015C99.7923 6.37355 99.7923 6.08694 99.7923 5.80034C99.2636 5.99687 98.6999 6.26982 98.0687 6.6465L97.9284 6.60829L97.2217 5.17527L97.2595 5.03333C98.1739 4.55292 99.0991 4.17351 99.857 3.91421C99.884 3.30278 99.9083 2.66406 99.946 1.98713L100.035 1.90797L101.721 1.92162L101.81 2.02535C101.772 2.62312 101.732 3.20998 101.707 3.74497C101.888 3.88691 102.069 4.11073 102.069 4.37004C102.069 4.60479 101.98 4.81223 101.632 5.31993L101.618 5.57924H101.613ZM99.5954 10.8528C99.7491 10.9046 99.8138 10.8528 99.8138 10.5935V9.3051C99.5441 9.69543 99.2096 10.1895 98.9399 10.5798C99.1854 10.6972 99.4281 10.8009 99.5954 10.8528Z" fill="black"/>
<path d="M119.625 13.1565C117.643 11.6198 115.752 10.4351 113.295 9.14677C112.766 8.87382 112.432 8.46984 112.432 7.87206C112.432 7.33707 112.715 6.93582 113.152 6.50455C114.619 5.06061 116.561 3.48292 118.53 1.93526H118.67L120.008 3.43106V3.56208C118.193 4.81222 116.251 6.2043 115.005 7.3125C114.875 7.41623 114.8 7.56089 114.811 7.65097C114.821 7.74105 114.913 7.83385 115.029 7.88571C116.688 8.65272 119.018 10.0066 120.998 11.4014L121.012 11.5324L119.739 13.1456L119.623 13.1592L119.625 13.1565Z" fill="black"/>
<path d="M126.239 4.81223L127.846 5.1234L127.925 5.24077C127.668 6.19066 127.526 7.03683 127.41 8.01401C128.389 6.98497 129.686 6.42541 131.089 6.42541C133.238 6.42541 134.409 7.77927 134.409 9.41974C134.409 11.9582 131.976 13.0528 128.389 13.2466C128.157 13.2466 128.081 13.2329 127.976 13.0774L126.908 11.4888C130.355 11.385 132.273 10.6944 132.273 9.4443C132.273 8.66365 132.003 8.09044 130.935 8.09044C129.778 8.09044 128.348 8.74008 127.307 10.5907L127.178 10.6562L125.608 10.5143L125.519 10.3969C125.492 8.60087 125.724 6.72566 126.109 4.86409L126.239 4.81223ZM127.205 3.13082L128.003 1.71144L128.132 1.64594C129.136 1.91889 130.088 2.24371 131.245 2.85786L131.272 2.98888L130.398 4.51198L130.269 4.53927C129.228 3.95242 128.364 3.56209 127.245 3.23727L127.207 3.13355L127.205 3.13082Z" fill="black"/>
<path d="M138.126 3.07895L139.941 3.14446L140.03 3.23453C139.914 4.67847 139.877 5.96956 139.877 6.72292C139.877 7.86934 139.993 8.63635 140.173 9.29963C140.314 9.80733 140.481 10.184 140.764 10.184C141.112 10.184 141.549 9.47978 141.846 8.28423L143.132 9.9247C143.221 10.0421 143.221 10.1076 143.17 10.2495C142.655 11.6034 141.819 12.5806 140.777 12.5806C139.941 12.5806 139.208 11.9828 138.692 10.9265C138.293 10.1076 137.945 8.64726 137.945 6.8785C137.945 5.82489 137.972 4.57475 138.034 3.15538L138.123 3.07622L138.126 3.07895ZM144.225 5.34449L145.46 4.34274L145.6 4.31544C147.041 5.30627 148.262 6.77751 149.01 8.5217L148.972 8.63908L147.337 9.66812L147.208 9.62991C146.512 7.83385 145.536 6.41448 144.198 5.46459L144.225 5.34722V5.34449Z" fill="black"/>
<path d="M214.097 12.2476C214.146 11.849 214.035 11.4533 213.787 11.1312C213.541 10.8091 213.191 10.6044 212.805 10.558C212.746 10.5498 212.686 10.547 212.63 10.547C211.891 10.547 211.224 11.123 211.133 11.8791C211.084 12.2749 211.195 12.6706 211.443 12.9873C211.691 13.3039 212.044 13.5059 212.441 13.555C212.829 13.6042 213.215 13.4922 213.531 13.2466C213.846 12.9982 214.049 12.6434 214.097 12.2476Z" fill="black"/>
<path d="M218.44 4.30999C218.586 3.10898 218.313 2.12907 217.628 1.39754C216.956 0.676936 215.923 0.226557 214.556 0.0573241C211.858 -0.278413 210.019 0.859817 209.218 3.34918L211.629 4.08344C212.093 2.42932 212.897 1.69779 214.084 1.84519C215.117 1.97348 215.743 2.85513 215.605 3.99063C215.481 5.00057 215.006 5.66931 213.784 6.54278C212.608 7.40259 212.139 8.03858 211.991 9.00484L213.884 9.23959C214.167 8.59541 214.683 8.14776 215.912 7.44899C217.612 6.48818 218.273 5.66658 218.437 4.30999H218.44Z" fill="black"/>
<path d="M153.272 4.93497L153.183 4.85854V3.45554L153.258 3.37911L154.618 3.41733V0.957987L154.72 0.854263H156.169L156.282 0.944339V3.40095L157.401 3.37638L157.477 3.44189V4.86946L157.401 4.93497L156.282 4.9104V6.41712C156.638 6.30248 156.994 6.17146 157.336 6.03225V7.31788C157.336 7.54989 157.285 7.61267 157.069 7.7164C156.84 7.82012 156.573 7.93476 156.282 8.05213V8.45065L156.347 11.3194C156.347 12.8125 155.788 13.1974 154.197 13.1974C154.043 13.1974 154.005 13.1728 153.954 13.0418L153.242 11.4341C153.711 11.4341 154.043 11.4095 154.272 11.3822C154.539 11.3576 154.615 11.2785 154.615 10.97V8.66628C154.31 8.78093 153.978 8.88465 153.636 9.00202L153.522 8.93651L153.013 7.42979L153.077 7.31515C153.598 7.20051 154.121 7.06949 154.615 6.9412V4.89402L153.266 4.93224L153.272 4.93497ZM160.355 3.95505H159.605L158.067 3.99327L157.978 3.92776V2.53841L158.054 2.44833L159.605 2.48654H160.355V0.957987L160.444 0.854263H162.097L162.186 0.944339V2.48927H163.052L164.565 2.45106L164.668 2.52749V3.91684L164.603 3.99327L163.052 3.95505H162.186V5.06053H163.586L165.213 5.02231L165.288 5.08782V6.49082L165.199 6.5809L163.583 6.54268H159.386L157.644 6.5809L157.555 6.50447V5.08782L157.63 5.02231L159.386 5.06053H160.352V3.95505H160.355ZM161.906 6.92755L162.008 6.79926H163.559L163.672 6.9139V7.67272L165.032 7.63451L165.107 7.70002V9.11666L165.018 9.20674L163.67 9.16852V9.95464L163.721 11.576C163.721 12.7333 163.2 13.1592 161.431 13.1592C161.177 13.1592 161.15 13.1346 161.099 13.0036L160.49 11.4477C161.088 11.4341 161.342 11.4231 161.558 11.3959C161.825 11.3822 161.9 11.3058 161.9 10.9973V9.17125H159.305L157.639 9.20947L157.55 9.13304V7.70548L157.625 7.63997L159.303 7.67818H161.898V6.93301L161.906 6.92755ZM159.554 9.24495H159.68C160.139 9.6189 160.684 10.1703 161.091 10.7244L161.078 10.839L159.756 11.8299L159.643 11.8162C159.262 11.2512 158.777 10.6698 158.321 10.2331L158.345 10.1184L159.554 9.24222V9.24495Z" fill="black"/>
<path d="M167.832 3.55663C168.697 3.55663 169.536 3.53206 170.375 3.46655C170.502 2.77051 170.591 2.04991 170.694 1.29109L170.783 1.21466L172.576 1.34295L172.641 1.43303C172.538 2.0772 172.449 2.68044 172.336 3.24819C173.278 3.0926 174.205 2.91245 175.133 2.65587L175.222 2.72138L175.4 4.38096L175.336 4.4956C174.254 4.74126 173.11 4.93233 171.929 5.07427C171.751 5.80852 171.535 6.50183 171.282 7.18422C172.096 6.69563 173.126 6.43905 174.243 6.43905C175.808 6.43905 177.499 7.31524 177.499 9.25596C177.499 11.1967 175.921 12.6024 171.915 12.8453C171.751 12.859 171.662 12.8071 171.573 12.6406L170.669 11.0711C174.065 11.0575 175.387 10.1704 175.387 9.10311C175.387 8.36885 174.712 8.03585 173.798 8.0222C172.439 8.00855 171.052 8.69094 170.135 10.416L170.008 10.4542L168.457 9.68178L168.433 9.56713C169.17 8.08771 169.666 6.76114 170.011 5.26807C169.323 5.31993 168.625 5.35814 167.926 5.37179L167.851 5.28171L167.748 3.66035L167.837 3.55663H167.832Z" fill="black"/>
<path d="M184.069 5.15342L181.957 5.19163L181.868 5.10156V4.58567H180.496L180.56 3.16903V2.93701L180.523 1.90797L180.612 1.81789L182.724 1.8561H185.113V0.917133L185.202 0.827057H186.907L186.996 0.917133V1.8561H189.553L191.652 1.81789L191.754 1.90797L191.716 2.88515V3.16903L191.781 4.58567H190.357V5.10156L190.268 5.19163L188.169 5.15342H186.707C186.683 5.22985 186.656 5.29536 186.618 5.37179C187.94 5.56559 189.022 5.7703 190.637 6.19612L190.662 6.3244L189.963 7.12144L191.959 7.08322L192.048 7.1733V8.43436L191.959 8.52444L190.306 8.49987V9.7855L190.37 11.3686C190.37 12.6161 189.912 13.1456 188.056 13.1456C187.803 13.1456 187.789 13.121 187.724 12.99L187.368 12.283H185.677V11.8327H183.668V12.4768H181.952L182.017 10.8691V10.0721L181.979 8.96663L182.055 8.87655L183.962 8.91476H185.45L187.344 8.87655L187.433 8.96663L187.395 10.0721V10.8691L187.433 11.6034C187.776 11.5897 187.981 11.5652 188.145 11.5515C188.412 11.527 188.488 11.4478 188.488 11.1394V8.48895H182.486L180.374 8.52716L180.285 8.43709V7.17603L180.374 7.08595L182.041 7.11052L181.394 6.19612C183.071 6.06783 184.204 5.81125 184.776 5.20528L184.827 5.15342H184.078H184.069ZM182.276 3.27275V3.8132L184.069 3.85142H185.175C185.189 3.70948 185.189 3.56754 185.189 3.41469V3.27275H182.276ZM185.672 10.0803H183.662V10.659H185.672V10.0803ZM188.547 7.12144C187.619 6.85121 186.678 6.6192 185.723 6.40083C185.189 6.7857 184.566 6.99315 183.929 7.12144H188.544H188.547ZM186.918 3.85415H188.164L189.944 3.81593V3.27548H186.918V3.85415Z" fill="black"/>
<path d="M196.509 4.29087L196.178 2.64495L196.253 2.5303C198.187 2.09357 200.145 1.78513 201.529 1.60498C202.166 1.60498 202.7 2.10722 202.7 2.7241C202.7 2.95612 202.662 3.19905 202.47 3.39285C201.44 4.42189 200.728 5.07972 199.673 6.13333C200.283 5.82489 200.728 5.7976 201.262 5.7976C203.182 5.7976 204.466 7.12416 204.466 9.11675C204.466 11.4587 202.724 12.7853 199.787 12.7853C198.287 12.7853 197.014 12.1548 197.014 10.689C197.014 9.85373 197.928 8.90111 198.958 8.90111C200.472 8.90111 201.197 9.90559 201.54 10.8063C202.29 10.446 202.519 9.84008 202.519 8.93933C202.519 8.03857 201.845 7.31796 200.79 7.31796C198.972 7.31796 197.661 8.52716 196.315 10.2905L196.188 10.3041L194.829 9.19864L194.815 9.0567C196.571 7.02317 198.174 5.24895 199.865 3.54843C198.899 3.75315 197.78 4.02338 196.609 4.35911L196.507 4.2936L196.509 4.29087ZM199.091 10.4024C198.837 10.4024 198.608 10.5061 198.608 10.7381C198.608 11.0083 198.899 11.254 199.549 11.254C199.727 11.254 199.854 11.2404 199.956 11.2158C199.83 10.6617 199.398 10.4051 199.091 10.4051V10.4024Z" fill="black"/>
</g>
<defs>
<clipPath id="clip0_17_467">
<rect width="220" height="13.7024" fill="white"/>
</clipPath>
</defs>
</svg>
