<svg width="136" height="32" viewBox="0 0 136 32" fill="none" xmlns="http://www.w3.org/2000/svg">
<g clip-path="url(#clip0_27_1203)">
<path d="M53.2482 8.12521C56.4262 7.09594 58.3945 6.18687 58.6124 6.0892L58.9956 5.90889L56.5689 0.702423L56.1857 0.882734C56.1106 0.912785 48.8681 4.24102 39.6122 5.20267L39.1239 5.25527L40.5739 10.8825L40.942 10.8374C42.8803 10.612 44.8562 10.2889 46.8171 9.8607C46.9448 11.0327 47.0049 12.1897 46.9899 13.3167H35.5928V19.0641H46.2086C45.2244 22.4223 43.3011 24.8415 40.4837 26.2765L39.9578 26.5394L44.8187 31.4003L45.1042 31.2125C49.2137 28.5529 51.8658 24.4659 52.9927 19.0641H63.5259V13.3167H53.5788C53.5938 11.2205 53.4135 9.37236 53.2407 8.12521H53.2482Z" fill="#00E1A9"/>
<path d="M16.2246 9.77054H24.9246V4.02314H3.15958V9.77054H8.98962V13.3242H0.5V19.0716H8.98962V20.514C8.98962 26.7272 13.5349 30.5814 20.845 30.5814H26.4722V23.7671H20.845C16.2246 23.7671 16.2246 21.4832 16.2246 20.5065V19.064H28.4406V13.3166H16.2246V9.76303V9.77054Z" fill="#00E1A9"/>
<path d="M70.4604 10.3641H87.1241V13.3242H70.4604V19.064H87.1241V23.0309H70.4604V28.7407H93.7205V4.73687H70.4604V10.3641Z" fill="#00E1A9"/>
<path d="M131 11.9869L130.707 12.6179C128.595 17.1558 125.575 19.6801 123.306 21.0324V4.19594H116.71V29.8752L120.609 29.1539C120.977 29.0863 129.752 27.3583 135.35 17.9446L135.5 17.6967L131 11.9944V11.9869Z" fill="#00E1A9"/>
<path d="M113.577 4.02314H106.906L106.981 4.51148C107.251 6.26951 107.634 9.79308 107.184 13.6172C106.485 19.5374 104.126 23.6845 100.167 25.9309L99.7383 26.1788L103.87 31.4153L104.193 31.2125C109.58 27.8241 112.886 21.949 113.757 14.2182C114.201 10.2964 113.93 6.70526 113.63 4.39127L113.585 4.02314H113.577Z" fill="#00E1A9"/>
</g>
<defs>
<clipPath id="clip0_27_1203">
<rect width="135" height="30.7204" fill="white" transform="translate(0.5 0.702423)"/>
</clipPath>
</defs>
</svg>
